<svg width="66" height="65" viewBox="0 0 66 65" fill="none" xmlns="http://www.w3.org/2000/svg">
<path d="M55.3438 0H10.6562C5.04711 0 0.5 4.54711 0.5 10.1562V54.8438C0.5 60.4529 5.04711 65 10.6562 65H55.3438C60.9529 65 65.5 60.4529 65.5 54.8438V10.1562C65.5 4.54711 60.9529 0 55.3438 0Z" fill="#25D366"/>
<path fill-rule="evenodd" clip-rule="evenodd" d="M44.375 20.9219C41.3281 17.875 37.2656 16.25 33 16.25C24.0625 16.25 16.75 23.5625 16.75 32.5C16.75 35.3438 17.5625 38.1875 18.9844 40.625L16.75 48.75L25.2813 46.5156C27.7188 47.7344 30.3594 48.5469 33 48.5469C41.9375 48.5469 49.25 41.2344 49.25 32.2969C49.25 28.0312 47.4219 23.9688 44.375 20.9219ZM33 45.9062C30.5625 45.9062 28.125 45.2969 26.0938 44.0781L25.6875 43.875L20.6094 45.2969L22.0313 40.4219L21.625 39.8125C20.2031 37.5781 19.5937 35.1406 19.5937 32.7031C19.5937 25.3906 25.6875 19.2969 33 19.2969C36.6562 19.2969 39.9063 20.7187 42.5469 23.1562C45.1875 25.7969 46.4063 29.0469 46.4063 32.7031C46.4063 39.8125 40.5156 45.9062 33 45.9062ZM40.3125 35.75C39.9063 35.5469 37.875 34.5312 37.4688 34.5312C37.0625 34.3281 36.8594 34.3281 36.6562 34.7344C36.4531 35.1406 35.6406 35.9531 35.4375 36.3594C35.2344 36.5625 35.0312 36.5625 34.625 36.5625C34.2187 36.3594 33 35.9531 31.375 34.5312C30.1563 33.5156 29.3438 32.0938 29.1406 31.6875C28.9375 31.2813 29.1406 31.0781 29.3438 30.875C29.5469 30.6719 29.75 30.4687 29.9531 30.2656C30.1562 30.0625 30.1563 29.8594 30.3594 29.6563C30.5625 29.4531 30.3594 29.25 30.3594 29.0469C30.3594 28.8438 29.5469 26.8125 29.1406 26C28.9375 25.3906 28.5313 25.3906 28.3281 25.3906C28.125 25.3906 27.9219 25.3906 27.5156 25.3906C27.3125 25.3906 26.9062 25.3906 26.5 25.7969C26.0937 26.2031 25.0781 27.2187 25.0781 29.25C25.0781 31.2812 26.5 33.1094 26.7031 33.5156C26.9062 33.7188 29.5469 37.9844 33.6094 39.6094C37.0625 41.0312 37.6719 40.625 38.4844 40.625C39.2969 40.625 40.9219 39.6094 41.125 38.7969C41.5312 37.7812 41.5313 36.9688 41.3281 36.9688C41.125 35.9531 40.7188 35.9531 40.3125 35.75Z" fill="white"/>
</svg>
